inDegrees=no
num_controls=7
num_derivatives=13
num_iterations=113
num_multipliers=7
num_parameters=0
num_slacks=7
num_states=26
objective=5.750931
objective_accelerations=0.351400
objective_balance=0.016376
objective_effort=0.407824
objective_height=4.930898
objective_ligament=0.044434
solver_duration=977.810698
status=Solve_Succeeded
success=true
DataType=double
version=3
OpenSimVersion=4.4-2022-07-23-0e9fedc
endheader
time	/jointset/ground_pelvis/pelvis_tilt/value	/jointset/ground_pelvis/pelvis_tx/value	/jointset/ground_pelvis/pelvis_ty/value	/jointset/hip_r/hip_flexion_r/value	/jointset/hip_r/hip_adduction_r/value	/jointset/hip_r/hip_rotation_r/value	/jointset/back/lumbar_extension/value	/jointset/patellofemoral_r/patellar_flexion_r/value	/jointset/knee_r/knee_flexion_r/value	/jointset/knee_r/knee_adduction_r/value	/jointset/knee_r/knee_rotation_r/value	/jointset/ankle_r/ankle_angle_r/value	/jointset/subtalar_r/subtalar_angle_r/value	/jointset/ground_pelvis/pelvis_tilt/speed	/jointset/ground_pelvis/pelvis_tx/speed	/jointset/ground_pelvis/pelvis_ty/speed	/jointset/hip_r/hip_flexion_r/speed	/jointset/hip_r/hip_adduction_r/speed	/jointset/hip_r/hip_rotation_r/speed	/jointset/back/lumbar_extension/speed	/jointset/patellofemoral_r/patellar_flexion_r/speed	/jointset/knee_r/knee_flexion_r/speed	/jointset/knee_r/knee_adduction_r/speed	/jointset/knee_r/knee_rotation_r/speed	/jointset/ankle_r/ankle_angle_r/speed	/jointset/subtalar_r/subtalar_angle_r/speed	/forceset/tau_hip_flexion_r	/forceset/tau_hip_adduction_r	/forceset/tau_hip_rotation_r	/forceset/tau_knee_flexion_r	/forceset/tau_ankle_angle_r	/forceset/tau_subtalar_angle_r	/forceset/tau_lumbar_extension	lambda_cid13_p0	lambda_cid14_p0	lambda_cid14_p1	lambda_cid14_p2	lambda_cid14_p3	lambda_cid14_p4	lambda_cid14_p5	/jointset/ground_pelvis/pelvis_tilt/accel	/jointset/ground_pelvis/pelvis_tx/accel	/jointset/ground_pelvis/pelvis_ty/accel	/jointset/hip_r/hip_flexion_r/accel	/jointset/hip_r/hip_adduction_r/accel	/jointset/hip_r/hip_rotation_r/accel	/jointset/back/lumbar_extension/accel	/jointset/patellofemoral_r/patellar_flexion_r/accel	/jointset/knee_r/knee_flexion_r/accel	/jointset/knee_r/knee_adduction_r/accel	/jointset/knee_r/knee_rotation_r/accel	/jointset/ankle_r/ankle_angle_r/accel	/jointset/subtalar_r/subtalar_angle_r/accel	gamma_cid13_p0	gamma_cid14_p0	gamma_cid14_p1	gamma_cid14_p2	gamma_cid14_p3	gamma_cid14_p4	gamma_cid14_p5
1	-0.1313002776439081	0.05011595871719685	0.77255658457371	0.9849064050136372	-0.2346615267217997	-0.08580815564240149	-0.4362093893415954	1.097140878730997	1.097140878732636	-0.02880479941750051	0.1745102540087654	0.4363015131163261	0.1069679815162974	-0.002057313887339059	0.005348996989313292	0.01312267602805853	-0.03755177022797595	0.002372073173274333	-0.01127497442533845	0.01086715391725941	-0.04988709148744219	-0.04988709148744772	-7.864464994764811e-05	-0.0001343865472214953	-0.01152685849812685	-0.0002265220426489515	-0.1650858485403803	0.0203796838507506	0.01417830468292535	-0.4439851084367989	-0.044890676595623	0.007963693013539335	0.2229670856405736	-5.974861218566364	-61.30503271376567	-6.547685535602276	0.6725832409250367	21.52725963871971	-767.3663685529619	62.16310161363029	0.6474068078530626	-0.03211762536074533	1.152545583956038	-3.434862309103255	0.1186589058256158	-0.4666942553610592	0.5129936243705236	-4.341597514506955	-4.34159751450722	0.627617170271619	-0.004982772273066179	-1.757860406451914	-0.4796289738256032	1.149104483441095e-09	-1.6609765813224e-09	-1.555681934168815e-09	1.13855082883781e-08	6.02263824080194e-09	-3.220669051066433e-09	-4.08277697921945e-09
1.01	-0.1312891987609149	0.05016802041202387	0.772745283719111	0.9843598969848119	-0.2346320430179057	-0.08594377026507184	-0.436073433038372	1.096425296396584	1.096425296396012	-0.02877359654124782	0.1745087280702358	0.4360986321980869	0.1069415451639941	0.004253157796866328	0.005082194117201338	0.02461359938809148	-0.0717512787194602	0.00352248974249327	-0.01584870622091546	0.01642879611590881	-0.09322629744391242	-0.09322629744391192	0.006321066145795743	-0.0001706675627781958	-0.02902407598046448	-0.005053464049921469	-0.165545694304254	0.02034863682292416	0.0141758972997832	-0.4435184568118927	-0.04497806353317069	0.007997446186068638	0.2234725771188709	-6.013932018235477	-61.32587006658415	-6.522659760244158	0.6525846556808287	21.31128870735485	-767.4817357421517	62.17090097174904	0.6198781972579105	-0.02113265591939082	1.146831642537549	-3.412711006901267	0.1129098850632665	-0.4528237988337135	0.5934529247839664	-4.329620859703735	-4.329620859702852	0.6464248576192538	-0.002926927945576131	-1.741865411034333	-0.4831319352877222	2.072053376648236e-09	-7.54335177768959e-10	-1.891114607724704e-09	2.06101983271505e-08	5.710263230869351e-09	-5.080689413359097e-09	-5.206337820526486e-09
1.02	-0.1312156129913634	0.05021797987057116	0.7730487852842145	0.9834713506935624	-0.2345911197778035	-0.08612514443713737	-0.4358787196316857	1.095276414257893	1.095276414255142	-0.02867834119239775	0.1745068440892288	0.4357215365066153	0.1068670583673921	0.01044406342325736	0.004928549733366499	0.03608315996877498	-0.1059594227201654	0.004659980415459354	-0.02042688430363029	0.02261857460149373	-0.1365470523398545	-0.136547052339841	0.0127318498772767	-0.0002059950482777654	-0.0463698131391907	-0.009836610901578358	-0.1660055400678923	0.02031758979505189	0.01417348991728111	-0.4430518051869201	-0.04506545047073738	0.008031199358497191	0.2239780685973896	-6.077025975297315	-61.35755549812261	-6.493861142966429	0.6255055190598277	21.1205335025965	-767.7677123204249	62.20704791898626	0.6234935962902771	-0.009485927705457907	1.148273028086149	-3.43658941094735	0.1160737265750491	-0.4675835127886671	0.6386208817574573	-4.337907302401362	-4.337907302400253	0.6298317574191061	-0.004792066261601332	-1.727564341729859	-0.4708699427025515	3.03491957473537e-09	-1.319395037449771e-10	-2.380231615880129e-09	2.968471967687439e-08	5.745243774913038e-09	-6.189958955806733e-09	-7.04634475565352e-09
1.03	-0.1310808579694047	0.05026696961614664	0.773466801858635	0.9822409249619706	-0.2345388998910047	-0.08635234135465281	-0.4356188207539756	1.093694519873998	1.093694519874134	-0.02851894457080495	0.1745046266724388	0.4351717419606342	0.1067449540715952	0.01647126681592489	0.004888484274044833	0.04750899419951373	-0.1401008818131616	0.005780508543602242	-0.02501400870267017	0.02948296736053041	-0.1798180340260948	-0.1798180340261176	0.01914794533493623	-0.000236460383544699	-0.06356355874295143	-0.01457739284575469	-0.1662631770974486	0.02021795403331704	0.0141754199688356	-0.4423462662371596	-0.04495068100704613	0.008025748319654689	0.2243065311943026	-6.16446607263201	-61.3032891614125	-6.46624071631418	0.5977019146206842	20.8831838988196	-767.6695841458455	62.20376230641916	0.58698360725988	0.001597035284322894	1.13806304821202	-3.399197075071172	0.1095256360119257	-0.4544990021224032	0.7286134354766878	-4.319625845228036	-4.319625845234548	0.6475688389014786	-0.002012350169012999	-1.711449483750688	-0.4746497542375448	3.998193092260055e-09	4.875557036511515e-10	-2.870916831531469e-09	3.875770869303656e-08	5.783768763385057e-09	-7.291567775602885e-09	-8.893662365207295e-09
